<svg width="16" height="16" viewBox="0 0 16 16" fill="none" xmlns="http://www.w3.org/2000/svg">
<path d="M12.6667 1.33337C13.0203 1.33337 13.3594 1.47385 13.6095 1.7239C13.8595 1.97395 14 2.31309 14 2.66671V10.6667C14 11.0203 13.8595 11.3595 13.6095 11.6095C13.3594 11.8596 13.0203 12 12.6667 12H11.3333V13.3334C11.3333 13.687 11.1929 14.0261 10.9428 14.2762C10.6928 14.5262 10.3536 14.6667 10 14.6667H3.33333C2.97971 14.6667 2.64057 14.5262 2.39052 14.2762C2.14048 14.0261 2 13.687 2 13.3334V5.33337C2 4.97975 2.14048 4.64061 2.39052 4.39056C2.64057 4.14052 2.97971 4.00004 3.33333 4.00004H4.66667V2.66671C4.66667 2.31309 4.80714 1.97395 5.05719 1.7239C5.30724 1.47385 5.64638 1.33337 6 1.33337H12.6667ZM10 5.33337H3.33333V13.3334H10V5.33337ZM6.66667 10C6.84348 10 7.01305 10.0703 7.13807 10.1953C7.2631 10.3203 7.33333 10.4899 7.33333 10.6667C7.33333 10.8435 7.2631 11.0131 7.13807 11.1381C7.01305 11.2631 6.84348 11.3334 6.66667 11.3334H5.33333C5.15652 11.3334 4.98695 11.2631 4.86193 11.1381C4.7369 11.0131 4.66667 10.8435 4.66667 10.6667C4.66667 10.4899 4.7369 10.3203 4.86193 10.1953C4.98695 10.0703 5.15652 10 5.33333 10H6.66667ZM12.6667 2.66671H6V4.00004H10C10.3536 4.00004 10.6928 4.14052 10.9428 4.39056C11.1929 4.64061 11.3333 4.97975 11.3333 5.33337V10.6667H12.6667V2.66671ZM8 7.33337C8.16992 7.33356 8.33335 7.39863 8.45691 7.51527C8.58047 7.63192 8.65482 7.79134 8.66478 7.96097C8.67474 8.1306 8.61955 8.29763 8.51049 8.42793C8.40143 8.55823 8.24673 8.64197 8.078 8.66204L8 8.66671H5.33333C5.16341 8.66652 4.99998 8.60145 4.87642 8.48481C4.75286 8.36816 4.67851 8.20874 4.66855 8.03911C4.65859 7.86948 4.71378 7.70245 4.82284 7.57215C4.9319 7.44185 5.0866 7.35811 5.25533 7.33804L5.33333 7.33337H8Z" fill="black"/>
</svg>
