<svg width="250" height="75" viewBox="0 0 250 75" fill="none" xmlns="http://www.w3.org/2000/svg">
<rect x="1" y="1" width="248" height="73" rx="21" fill="url(#paint0_linear_999_526)"/>
<rect x="1" y="1" width="248" height="73" rx="21" stroke="black" stroke-width="2"/>
<path d="M30 19.5L34.0413 31.9377H47.119L36.5389 39.6246L40.5801 52.0623L30 44.3754L19.4199 52.0623L23.4611 39.6246L12.881 31.9377H25.9587L30 19.5Z" fill="black"/>
<path d="M30 29.5L31.7961 35.0279H37.6085L32.9062 38.4443L34.7023 43.9721L30 40.5557L25.2977 43.9721L27.0938 38.4443L22.3915 35.0279H28.2039L30 29.5Z" fill="white"/>
<path d="M87.4102 35.832V40.1914H57.7383V35.832H87.4102ZM72.5039 41.3867C79.5703 41.3867 83.8594 43.5664 83.8945 47.5039C83.8594 51.3711 79.5703 53.5508 72.5039 53.5508C65.332 53.5508 61.0078 51.3711 61.0078 47.5039C61.0078 43.5664 65.332 41.3867 72.5039 41.3867ZM72.5039 45.6406C68.4609 45.6406 66.7383 46.1328 66.7734 47.5039C66.7383 48.8047 68.4609 49.2969 72.5039 49.2969C76.4414 49.2969 78.2344 48.8047 78.2344 47.5039C78.2344 46.1328 76.4414 45.6406 72.5039 45.6406ZM72.5742 21.5938C79.7812 21.6289 84.5625 24.125 84.5977 28.0977C84.5625 32.1055 79.7812 34.5664 72.5742 34.6016C65.2969 34.5664 60.4805 32.1055 60.5156 28.0977C60.4805 24.125 65.2969 21.6289 72.5742 21.5938ZM72.5742 25.918C68.4609 25.9531 66.3516 26.5156 66.3867 28.0977C66.3516 29.6445 68.4609 30.2422 72.5742 30.2422C76.582 30.2422 78.7617 29.6445 78.7617 28.0977C78.7617 26.5156 76.582 25.9531 72.5742 25.918ZM122.159 45.3594V49.9297H92.4516V45.3594H104.475V39.5234H95.3695V23.1758H119.1V39.5234H110.065V45.3594H122.159ZM100.959 27.6758V35.1641H113.51V27.6758H100.959ZM153.11 20.9609V33.3008H157.505V37.9062H153.11V53.4805H147.52V20.9609H153.11ZM145.938 25.6016V30.0664H126.989V25.6016H133.704V21.5586H139.329V25.6016H145.938ZM136.516 31.332C141.333 31.332 145.024 34.6367 145.024 39.2422C145.024 43.8828 141.333 47.1875 136.516 47.1875C131.595 47.1875 127.973 43.8828 127.973 39.2422C127.973 34.6367 131.595 31.332 136.516 31.332ZM136.516 35.8672C134.688 35.8672 133.352 37.0625 133.387 39.2422C133.352 41.5273 134.688 42.6172 136.516 42.6172C138.309 42.6172 139.61 41.5273 139.61 39.2422C139.61 37.0625 138.309 35.8672 136.516 35.8672ZM189.476 20.9609V53.4805H183.745V20.9609H189.476ZM179.632 24.3008C179.632 34.4961 176.749 42.6172 164.691 48.2422L161.808 43.8125C169.929 39.9453 173.181 35.4805 173.902 28.6953H163.671V24.3008H179.632Z" fill="black"/>
<path d="M220 19.5L224.041 31.9377H237.119L226.539 39.6246L230.58 52.0623L220 44.3754L209.42 52.0623L213.461 39.6246L202.881 31.9377H215.959L220 19.5Z" fill="black"/>
<path d="M220 29.5L221.796 35.0279H227.608L222.906 38.4443L224.702 43.9721L220 40.5557L215.298 43.9721L217.094 38.4443L212.392 35.0279H218.204L220 29.5Z" fill="white"/>
<defs>
<linearGradient id="paint0_linear_999_526" x1="0" y1="37.5" x2="250" y2="37.5" gradientUnits="userSpaceOnUse">
<stop stop-color="#FF0000"/>
<stop offset="0.259615" stop-color="#FFEE30"/>
<stop offset="0.596154" stop-color="#20FFFF"/>
<stop offset="0.8125" stop-color="#EA02FF"/>
<stop offset="1" stop-color="#5A00F5"/>
</linearGradient>
</defs>
</svg>
