<svg width="250" height="75" viewBox="0 0 250 75" fill="none" xmlns="http://www.w3.org/2000/svg">
<rect x="1" y="1" width="248" height="73" rx="21" fill="white"/>
<rect x="1" y="1" width="248" height="73" rx="21" stroke="#00FF15" stroke-width="2"/>
<path d="M30 19.5L34.0413 31.9377H47.119L36.5389 39.6246L40.5801 52.0623L30 44.3754L19.4199 52.0623L23.4611 39.6246L12.881 31.9377H25.9587L30 19.5Z" fill="#FF0DCF"/>
<path d="M30 29.5L31.7961 35.0279H37.6085L32.9062 38.4443L34.7023 43.9721L30 40.5557L25.2977 43.9721L27.0938 38.4443L22.3915 35.0279H28.2039L30 29.5Z" fill="#FF0DCF"/>
<path d="M87.4102 40.1914H57.7383V35.832H87.4102V40.1914ZM72.5039 41.3867C74.8594 41.3867 76.8867 41.627 78.5859 42.1074C80.2852 42.5762 81.5918 43.2676 82.5059 44.1816C83.4199 45.0957 83.8828 46.2031 83.8945 47.5039C83.8828 48.7812 83.4199 49.8711 82.5059 50.7734C81.5918 51.6875 80.2852 52.3789 78.5859 52.8477C76.8867 53.3164 74.8594 53.5508 72.5039 53.5508C70.1133 53.5508 68.0566 53.3164 66.334 52.8477C64.6113 52.3789 63.293 51.6875 62.3789 50.7734C61.4648 49.8711 61.0078 48.7812 61.0078 47.5039C61.0078 46.2031 61.4648 45.0957 62.3789 44.1816C63.293 43.2676 64.6113 42.5762 66.334 42.1074C68.0566 41.627 70.1133 41.3867 72.5039 41.3867ZM72.5039 45.6406C71.1328 45.6406 70.0254 45.7051 69.1816 45.834C68.3496 45.9512 67.7344 46.1445 67.3359 46.4141C66.9492 46.6836 66.7617 47.0469 66.7734 47.5039C66.7617 48.1484 67.2012 48.6113 68.0918 48.8926C68.9941 49.1621 70.4648 49.2969 72.5039 49.2969C74.4961 49.2969 75.9492 49.1621 76.8633 48.8926C77.7773 48.6113 78.2344 48.1484 78.2344 47.5039C78.2344 46.8242 77.7773 46.3438 76.8633 46.0625C75.9609 45.7812 74.5078 45.6406 72.5039 45.6406ZM72.5742 21.5938C74.9648 21.6055 77.0625 21.8809 78.8672 22.4199C80.6836 22.9473 82.0898 23.6973 83.0859 24.6699C84.082 25.6426 84.5859 26.7852 84.5977 28.0977C84.5859 29.4219 84.082 30.5703 83.0859 31.543C82.0898 32.5156 80.6836 33.2656 78.8672 33.793C77.0625 34.3203 74.9648 34.5898 72.5742 34.6016C70.1602 34.5898 68.0391 34.3203 66.2109 33.793C64.3945 33.2656 62.9883 32.5156 61.9922 31.543C60.9961 30.5586 60.5039 29.4102 60.5156 28.0977C60.5039 26.7852 60.9961 25.6426 61.9922 24.6699C62.9883 23.6973 64.3945 22.9473 66.2109 22.4199C68.0391 21.8809 70.1602 21.6055 72.5742 21.5938ZM72.5742 25.918C70.4531 25.9414 68.8887 26.1172 67.8809 26.4453C66.873 26.7734 66.375 27.3242 66.3867 28.0977C66.375 28.8594 66.873 29.4102 67.8809 29.75C68.9004 30.0781 70.4648 30.2422 72.5742 30.2422C74.6367 30.2422 76.1836 30.0723 77.2148 29.7324C78.2461 29.3926 78.7617 28.8477 78.7617 28.0977C78.7617 27.3359 78.252 26.791 77.2324 26.4629C76.2129 26.123 74.6602 25.9414 72.5742 25.918ZM122.159 49.9297H92.4516V45.3594H104.475V39.5234H95.3695V23.1758H119.1V39.5234H110.065V45.3594H122.159V49.9297ZM100.959 35.1641H113.51V27.6758H100.959V35.1641ZM136.868 22.1914C138.438 22.1914 139.845 22.4785 141.087 23.0527C142.341 23.6152 143.325 24.4121 144.04 25.4434C144.755 26.4629 145.118 27.6289 145.13 28.9414C145.118 29.9375 144.889 30.8633 144.444 31.7188C143.999 32.5625 143.372 33.2949 142.563 33.916C141.755 34.5254 140.817 34.9766 139.751 35.2695V37.168C142.059 37.0273 144.227 36.8164 146.255 36.5352L146.677 40.5781C143.735 41.0938 140.653 41.4453 137.43 41.6328C134.22 41.8203 130.938 41.9141 127.587 41.9141L127.024 37.5195C129.602 37.5195 131.946 37.4902 134.055 37.4316V35.3047C132.966 35.0117 132.011 34.5605 131.19 33.9512C130.37 33.3301 129.731 32.5918 129.274 31.7363C128.829 30.8809 128.606 29.9492 128.606 28.9414C128.606 27.6289 128.958 26.4629 129.661 25.4434C130.376 24.4121 131.36 23.6152 132.614 23.0527C133.868 22.4785 135.286 22.1914 136.868 22.1914ZM136.868 26.4102C135.93 26.4336 135.186 26.6504 134.636 27.0605C134.096 27.4707 133.833 28.0977 133.845 28.9414C133.833 29.7266 134.102 30.3359 134.653 30.7695C135.216 31.1914 135.954 31.4023 136.868 31.4023C137.782 31.4023 138.503 31.1914 139.03 30.7695C139.557 30.3477 139.821 29.7383 139.821 28.9414C139.821 28.0977 139.563 27.4707 139.048 27.0605C138.532 26.6504 137.805 26.4336 136.868 26.4102ZM153.532 30.7344H157.259V35.4102H153.532V45.7812H147.907V21.0312H153.532V30.7344ZM154.622 52.9883H131.032V43.5664H136.727V48.5234H154.622V52.9883ZM191.585 50.1406H161.878V45.5703H169.015V41.3516H165.113V29.8555H182.796V27.3945H165.077V22.8945H188.386V34.2852H170.773V36.8164H189.124V41.3516H184.87V45.5703H191.585V50.1406ZM179.316 45.5703V41.3516H174.499V45.5703H179.316Z" fill="#FF0DCF"/>
<path d="M220 19.5L224.041 31.9377H237.119L226.539 39.6246L230.58 52.0623L220 44.3754L209.42 52.0623L213.461 39.6246L202.881 31.9377H215.959L220 19.5Z" fill="#FF0DCF"/>
<path d="M220 29.5L221.796 35.0279H227.608L222.906 38.4443L224.702 43.9721L220 40.5557L215.298 43.9721L217.094 38.4443L212.392 35.0279H218.204L220 29.5Z" fill="#FF0DCF"/>
</svg>
