<svg width="121" height="43" viewBox="0 0 121 43" fill="none" xmlns="http://www.w3.org/2000/svg">
<rect x="1" y="1" width="119" height="41" rx="9" fill="#00FF15"/>
<rect x="1" y="1" width="119" height="41" rx="9" stroke="#00FF15" stroke-width="2"/>
<path d="M19 14.5L20.5716 19.3369H25.6574L21.5429 22.3262L23.1145 27.1631L19 24.1738L14.8855 27.1631L16.4571 22.3262L12.3426 19.3369H17.4284L19 14.5Z" fill="black"/>
<path d="M34.9665 14.392H36.7105V15.72C36.7105 16.6907 36.5612 17.6133 36.2625 18.488C35.9745 19.352 35.5265 20.1093 34.9185 20.76C34.3105 21.4107 33.5372 21.896 32.5985 22.216L31.4785 20.552C32.3105 20.264 32.9825 19.8747 33.4945 19.384C34.0065 18.8827 34.3798 18.312 34.6145 17.672C34.8492 17.032 34.9665 16.3813 34.9665 15.72V14.392ZM35.3985 14.392H37.1105V15.912C37.1105 16.36 37.1745 16.7973 37.3025 17.224C37.4412 17.6507 37.6438 18.0507 37.9105 18.424C38.1772 18.7973 38.5185 19.1333 38.9345 19.432C39.3505 19.72 39.8518 19.9547 40.4385 20.136L39.3345 21.8C38.4385 21.5013 37.6972 21.0587 37.1105 20.472C36.5345 19.8853 36.1025 19.2027 35.8145 18.424C35.5372 17.6453 35.3985 16.808 35.3985 15.912V14.392ZM41.2385 13.608H43.3665V22.36H41.2385V13.608ZM42.7905 17.032H45.3345V18.792H42.7905V17.032ZM38.5345 22.696C39.5692 22.696 40.4598 22.8133 41.2065 23.048C41.9532 23.272 42.5292 23.5973 42.9345 24.024C43.3398 24.44 43.5425 24.952 43.5425 25.56C43.5425 26.1573 43.3398 26.6693 42.9345 27.096C42.5292 27.5227 41.9532 27.848 41.2065 28.072C40.4598 28.3067 39.5692 28.424 38.5345 28.424C37.5105 28.424 36.6198 28.3067 35.8625 28.072C35.1158 27.848 34.5345 27.5227 34.1185 27.096C33.7132 26.6693 33.5105 26.1573 33.5105 25.56C33.5105 24.952 33.7132 24.44 34.1185 24.024C34.5345 23.5973 35.1158 23.272 35.8625 23.048C36.6198 22.8133 37.5105 22.696 38.5345 22.696ZM38.5345 24.344C37.9052 24.344 37.3772 24.392 36.9505 24.488C36.5238 24.5733 36.1985 24.7067 35.9745 24.888C35.7505 25.0587 35.6385 25.2827 35.6385 25.56C35.6385 25.8267 35.7505 26.0507 35.9745 26.232C36.1985 26.4133 36.5238 26.552 36.9505 26.648C37.3772 26.7333 37.9052 26.776 38.5345 26.776C39.1638 26.776 39.6918 26.7333 40.1185 26.648C40.5558 26.552 40.8812 26.4133 41.0945 26.232C41.3185 26.0507 41.4305 25.8267 41.4305 25.56C41.4305 25.2827 41.3185 25.0587 41.0945 24.888C40.8812 24.7067 40.5558 24.5733 40.1185 24.488C39.6918 24.392 39.1638 24.344 38.5345 24.344ZM52.0693 21.752H54.1813V23.992H52.0693V21.752ZM46.4213 20.536H59.8293V22.216H46.4213V20.536ZM47.5893 14.008H58.6453V15.704H47.5893V14.008ZM47.7013 17.928H58.5173V19.608H47.7013V17.928ZM49.4773 14.616H51.6053V19.032H49.4773V14.616ZM54.6293 14.616H56.7573V19.032H54.6293V14.616ZM47.9893 23.432H58.2293V28.264H47.9893V23.432ZM56.1493 25.096H50.0693V26.584H56.1493V25.096ZM70.676 13.608H72.804V22.248H70.676V13.608ZM72.228 16.952H74.772V18.712H72.228V16.952ZM61.572 14.456H63.684V16.328H66.596V14.456H68.692V21.512H61.572V14.456ZM63.684 17.976V19.848H66.596V17.976H63.684ZM63.188 22.904H72.9V24.568H65.3V27.752H63.188V22.904ZM63.188 26.552H73.188V28.248H63.188V26.552ZM86.0828 13.592H88.2108V28.408H86.0828V13.592ZM81.7148 15.128H83.8108C83.8108 16.2587 83.6988 17.3413 83.4748 18.376C83.2614 19.4 82.8988 20.3653 82.3868 21.272C81.8854 22.1787 81.1921 23.0213 80.3068 23.8C79.4321 24.568 78.3388 25.272 77.0268 25.912L75.9068 24.232C77.3361 23.5387 78.4721 22.776 79.3148 21.944C80.1681 21.1013 80.7814 20.152 81.1548 19.096C81.5281 18.0293 81.7148 16.8347 81.7148 15.512V15.128ZM76.7068 15.128H82.7068V16.824H76.7068V15.128Z" fill="black"/>
<path d="M102 14.5L103.572 19.3369H108.657L104.543 22.3262L106.114 27.1631L102 24.1738L97.8855 27.1631L99.4571 22.3262L95.3426 19.3369H100.428L102 14.5Z" fill="black"/>
</svg>
