<svg width="199" height="49" viewBox="0 0 199 49" fill="none" xmlns="http://www.w3.org/2000/svg">
<rect x="1.5" y="1.5" width="196" height="46" rx="23" fill="#FF0DCF"/>
<rect x="1.5" y="1.5" width="196" height="46" rx="23" stroke="white" stroke-width="3"/>
<path d="M24.7695 21.5645L24.8818 21.9102H30.9707L26.3389 25.2754L26.0449 25.4893L26.1572 25.835L27.9258 31.2803L23.2939 27.915L23 27.7012L22.7061 27.915L18.0732 31.2803L19.8428 25.835L19.9551 25.4893L19.6611 25.2754L15.0293 21.9102H21.1182L21.2305 21.5645L23 16.1172L24.7695 21.5645Z" fill="#FF0DCF" stroke="white"/>
<mask id="path-3-inside-1_999_632" fill="white">
<path d="M40 11.5H159V37.5H40V11.5Z"/>
</mask>
<path d="M159 37.5V36.5H40V37.5V38.5H159V37.5Z" fill="white" mask="url(#path-3-inside-1_999_632)"/>
<path d="M58.7012 25.6465V28.3965H54.791V34.627H51.2891V28.3965H47.873V34.627H44.3496V28.3965H40.5684V25.6465H58.7012ZM49.5703 15.3555C53.8887 15.334 56.9824 17.1387 56.9824 19.9316C56.9824 22.6387 53.8887 24.3574 49.5703 24.3574C45.252 24.3574 42.2012 22.6387 42.2227 19.9316C42.2012 17.1387 45.252 15.334 49.5703 15.3555ZM49.5703 18.084C47.1855 18.084 45.7676 18.6641 45.7676 19.9316C45.7676 21.0918 47.1855 21.6504 49.5703 21.6719C51.998 21.6504 53.3945 21.0918 53.3945 19.9316C53.3945 18.6641 51.998 18.084 49.5703 18.084ZM78.6902 14.7539V34.627H75.2527V14.7539H78.6902ZM66.1219 16.623V26.9355C68.5926 26.8818 71.2889 26.6348 73.9422 26.1406L74.3719 28.9551C70.9129 29.6855 67.5398 29.8789 64.5535 29.8789H62.7059V16.623H66.1219ZM99.152 15.3984V17.418C99.152 19.459 99.152 21.3496 98.5934 23.9492L95.1988 23.6914C95.36 22.9824 95.4674 22.3271 95.5426 21.6934L84.8219 22.1016L84.4352 19.3086L95.7359 19.1367V18.127H85.0152V15.3984H99.152ZM101.064 24.7441V27.4082H83.0602V24.7441H89.3766V22.5312H92.8355V24.7441H101.064ZM99.4098 31.5762V34.3477H85.0152V28.3535H88.4742V31.5762H99.4098ZM120.989 14.7539V34.6914H117.508V14.7539H120.989ZM110.075 16.0859C113.104 16.0645 115.381 18.8574 115.381 23.2402C115.381 27.6875 113.104 30.459 110.075 30.459C106.981 30.459 104.682 27.6875 104.682 23.2402C104.682 18.8574 106.981 16.0645 110.075 16.0859ZM110.075 19.2012C108.807 19.1797 108.012 20.4902 108.012 23.2402C108.012 26.0332 108.807 27.3008 110.075 27.3008C111.256 27.3008 112.073 26.0332 112.073 23.2402C112.073 20.4902 111.256 19.1797 110.075 19.2012ZM143.577 29.6641V32.457H125.423V29.6641H129.183V25.0879C127.754 24.1318 126.895 22.7461 126.905 21.0273C126.884 17.7402 130.128 15.5488 134.489 15.5703C138.808 15.5488 142.095 17.7402 142.095 21.0273C142.095 22.7246 141.246 24.0996 139.839 25.0449V29.6641H143.577ZM134.489 18.2559C131.911 18.2344 130.321 19.2012 130.321 21.0273C130.321 22.8105 131.911 23.8418 134.489 23.8418C137.025 23.8418 138.657 22.8105 138.679 21.0273C138.657 19.2012 137.025 18.2344 134.489 18.2559ZM132.599 29.6641H136.38V26.334C135.779 26.4307 135.145 26.4844 134.489 26.4844C133.834 26.4844 133.2 26.4307 132.599 26.334V29.6641ZM150.311 27.3223C150.311 24.7871 150.912 24.0137 152.072 23.2617C153.039 22.6387 153.77 22.1016 153.77 21.2207C153.77 20.4258 153.125 19.8887 152.33 19.8887C151.492 19.8887 150.762 20.5117 150.74 21.4355H146.959C147.002 18.127 149.43 16.7305 152.352 16.7305C155.574 16.7305 157.938 18.1699 157.938 21.0059C157.938 22.832 156.949 23.9277 155.467 24.7871C154.35 25.4531 153.791 26.0762 153.791 27.3223V27.666H150.311V27.3223ZM152.094 32.7363C150.934 32.7363 149.988 31.8125 150.01 30.6523C149.988 29.5137 150.934 28.5898 152.094 28.5898C153.189 28.5898 154.178 29.5137 154.178 30.6523C154.178 31.8125 153.189 32.7363 152.094 32.7363Z" fill="white"/>
<path d="M177.77 21.5645L177.882 21.9102H183.971L179.339 25.2754L179.045 25.4893L179.157 25.835L180.926 31.2803L176.294 27.915L176 27.7012L175.706 27.915L171.073 31.2803L172.843 25.835L172.955 25.4893L172.661 25.2754L168.029 21.9102H174.118L174.23 21.5645L176 16.1172L177.77 21.5645Z" fill="#FF0DCF" stroke="white"/>
</svg>
